<svg width="100" height="22" viewBox="0 0 100 22" fill="none" xmlns="http://www.w3.org/2000/svg">
    <g clip-path="url(#clip0_342_980)">
    <mask id="mask0_342_980" style="mask-type:luminance" maskUnits="userSpaceOnUse" x="0" y="0" width="100" height="22">
    <path d="M100 0.0961914H0V21.9038H100V0.0961914Z" fill="white"/>
    </mask>
    <g mask="url(#mask0_342_980)">
    <path d="M58.5371 16.5481V21.9016C57.1118 21.9054 55.6997 21.6279 54.3819 21.085C53.064 20.5421 51.8662 19.7444 50.8572 18.7377C49.8482 17.7311 49.0478 16.5352 48.5018 15.2186C47.9558 13.902 47.675 12.4906 47.6754 11.0653L47.6709 1.24104C47.6707 1.09107 47.7001 0.942529 47.7574 0.803928C47.8147 0.665327 47.8987 0.539386 48.0047 0.433316C48.1108 0.327246 48.2367 0.24313 48.3752 0.185784C48.5138 0.128438 48.6623 0.0989886 48.8123 0.0991215H51.881C52.031 0.0989887 52.1795 0.128435 52.3181 0.185774C52.4568 0.243114 52.5827 0.327222 52.6888 0.433286C52.7948 0.539349 52.8789 0.665286 52.9363 0.80389C52.9936 0.942494 53.0231 1.09104 53.0229 1.24104L53.027 11.039C53.0239 11.0422 53.0215 11.046 53.0201 11.0502C53.0187 11.0544 53.0183 11.0589 53.0189 11.0633C53.0194 11.7861 53.1627 12.5018 53.4407 13.1691C53.7186 13.8364 54.1256 14.4422 54.6384 14.9517C55.1512 15.4613 55.7596 15.8645 56.4286 16.1382C57.0977 16.4118 57.8142 16.5507 58.5371 16.5466" fill="#00C4B3"/>
    <path d="M45.2551 10.655C45.1902 8.51218 44.4954 6.43601 43.2574 4.68579C42.0195 2.93557 40.2934 1.58887 38.2946 0.813911C36.2958 0.0389512 34.113 -0.129919 32.0188 0.328393C29.9246 0.786706 28.0118 1.85188 26.5194 3.39088C25.027 4.92988 24.0212 6.87448 23.6275 8.98178C23.2337 11.0891 23.4696 13.2657 24.3057 15.2397C25.1417 17.2137 26.5409 18.8977 28.3283 20.0812C30.1158 21.2647 32.2123 21.8954 34.3561 21.8944C36.0425 21.8639 37.6549 21.1963 38.8692 20.0257C38.9548 19.9465 39.0616 19.8942 39.1765 19.8751C39.2915 19.856 39.4095 19.871 39.516 19.9182C39.6225 19.9654 39.7129 20.0428 39.7759 20.1408C39.839 20.2388 39.8719 20.3531 39.8707 20.4696L39.8627 21.8994H45.2551V10.655ZM34.3379 16.5085C33.2519 16.4958 32.194 16.1623 31.2971 15.5497C30.4003 14.9372 29.7047 14.073 29.2979 13.0661C28.891 12.0591 28.7911 10.9543 29.0107 9.89069C29.2303 8.82707 29.7596 7.85217 30.532 7.08868C31.3044 6.32519 32.2854 5.80722 33.3514 5.59995C34.4175 5.39268 35.5211 5.50538 36.5233 5.92387C37.5255 6.34235 38.3815 7.04792 38.9836 7.95178C39.5857 8.85563 39.907 9.9174 39.9071 11.0034C39.898 12.4718 39.3063 13.8765 38.262 14.9087C37.2177 15.941 35.8063 16.5164 34.3379 16.5085Z" fill="#00C4B3"/>
    <path d="M18.0577 0.867911L12.537 15.8477C12.2784 16.5896 11.6102 16.624 11.3248 15.8916L5.48899 0.837608C5.40572 0.6226 5.25993 0.43748 5.07043 0.306135C4.88093 0.17479 4.65641 0.103248 4.42586 0.100739H1.14152C0.956411 0.100965 0.774134 0.146167 0.610371 0.232454C0.446608 0.31874 0.306264 0.443528 0.201418 0.596076C0.0965717 0.748625 0.0303637 0.924366 0.00849171 1.10817C-0.0133803 1.29198 0.00973892 1.47835 0.0758596 1.65124L7.8102 21.9038H16.0905L23.6057 1.6366C23.6703 1.46389 23.6922 1.27808 23.6693 1.09508C23.6464 0.912089 23.5795 0.737374 23.4743 0.585918C23.369 0.434463 23.2287 0.310786 23.0651 0.225491C22.9016 0.140197 22.7199 0.0958296 22.5355 0.0961936L19.1329 0.102254C18.8965 0.102736 18.6661 0.176677 18.4736 0.313846C18.281 0.451015 18.1354 0.644632 18.0577 0.867911Z" fill="#00C4B3"/>
    <path d="M82.6618 1.24104L82.6653 11.0986C82.6653 13.9804 81.5205 16.7441 79.4828 18.7818C77.4451 20.8195 74.6814 21.9643 71.7996 21.9643C68.9179 21.9643 66.1542 20.8195 64.1165 18.7818C62.0788 16.7441 60.934 13.9804 60.934 11.0986L60.9299 1.24104C60.9297 1.09098 60.9592 0.942363 61.0165 0.803696C61.0739 0.665029 61.158 0.539043 61.2641 0.432959C61.3703 0.326876 61.4963 0.242781 61.635 0.185495C61.7737 0.128208 61.9223 0.0988569 62.0724 0.0991229H65.141C65.291 0.0989233 65.4396 0.128327 65.5782 0.18565C65.7168 0.242972 65.8427 0.327086 65.9488 0.433169C66.0548 0.539252 66.1389 0.66522 66.1961 0.803851C66.2534 0.942482 66.2827 1.09105 66.2825 1.24104L66.286 11.0663C66.286 11.0744 66.2779 11.0825 66.2779 11.0986C66.2918 12.554 66.8797 13.945 67.9138 14.9692C68.9479 15.9935 70.3445 16.568 71.7999 16.568C73.2553 16.568 74.6519 15.9935 75.686 14.9692C76.72 13.945 77.3079 12.554 77.3219 11.0986C77.3219 11.0825 77.3138 11.0744 77.3138 11.0663L77.3102 1.24104C77.3112 0.93856 77.4317 0.648726 77.6456 0.434791C77.8594 0.220856 78.1492 0.100188 78.4517 0.0991229H81.5203C81.6703 0.0989899 81.8188 0.128439 81.9574 0.185785C82.096 0.243131 82.2219 0.327247 82.3279 0.433317C82.4339 0.539388 82.518 0.665329 82.5753 0.80393C82.6326 0.942531 82.662 1.09107 82.6618 1.24104Z" fill="#00C4B3"/>
    <path d="M96.2304 13.3449L97.3602 12.5601C97.4293 12.512 97.4883 12.4509 97.5337 12.38C97.5792 12.3092 97.6102 12.2301 97.6251 12.1473C97.64 12.0645 97.6384 11.9795 97.6204 11.8973C97.6024 11.8151 97.5684 11.7372 97.5203 11.6681L95.6102 8.92117C95.5589 8.84753 95.5288 8.76122 95.5231 8.67164C95.5175 8.58206 95.5366 8.49266 95.5782 8.41317C95.6199 8.33368 95.6826 8.26715 95.7595 8.22082C95.8364 8.1745 95.9245 8.15017 96.0142 8.15047H99.3602C99.4442 8.15053 99.5275 8.13403 99.6051 8.10189C99.6828 8.06976 99.7534 8.02263 99.8128 7.96319C99.8722 7.90376 99.9194 7.83319 99.9515 7.75553C99.9836 7.67786 100 7.59462 100 7.51057V6.1338C100 5.96409 99.9327 5.80133 99.8127 5.68132C99.6926 5.56132 99.5299 5.4939 99.3602 5.4939H96.0142C95.9245 5.49414 95.8365 5.46978 95.7597 5.42349C95.6829 5.37719 95.6203 5.31072 95.5787 5.23132C95.537 5.15191 95.5179 5.0626 95.5235 4.9731C95.529 4.8836 95.559 4.79734 95.6102 4.7237L97.5203 1.97774C97.5684 1.90872 97.6024 1.83089 97.6203 1.74872C97.6383 1.66654 97.6399 1.58163 97.6251 1.49884C97.6102 1.41604 97.5791 1.33699 97.5337 1.26621C97.4882 1.19543 97.4293 1.1343 97.3602 1.08632L96.2304 0.299456C96.1611 0.251573 96.0831 0.217808 96.0008 0.200091C95.9185 0.182375 95.8335 0.181053 95.7506 0.196203C95.6678 0.211353 95.5888 0.242677 95.518 0.288384C95.4473 0.334092 95.3863 0.393287 95.3385 0.462587L92.5359 4.49643L89.7344 0.462587C89.6866 0.393234 89.6256 0.333988 89.5549 0.288242C89.4842 0.242497 89.4052 0.21115 89.3223 0.195997C89.2395 0.180844 89.1544 0.182182 89.0721 0.199935C88.9898 0.217688 88.9117 0.251507 88.8425 0.299456L87.7127 1.0843C87.6433 1.13225 87.584 1.19345 87.5384 1.26438C87.4927 1.33531 87.4615 1.41458 87.4466 1.49761C87.4316 1.58065 87.4333 1.66582 87.4514 1.74822C87.4695 1.83061 87.5037 1.90862 87.5521 1.97774L89.4607 4.72521C89.5118 4.79886 89.5418 4.88512 89.5474 4.97462C89.553 5.06411 89.5339 5.15342 89.4922 5.23283C89.4506 5.31224 89.3879 5.3787 89.3111 5.425C89.2343 5.4713 89.1463 5.49565 89.0566 5.49542H85.7112C85.5415 5.49542 85.3787 5.56283 85.2587 5.68284C85.1387 5.80284 85.0713 5.9656 85.0713 6.13532V7.51259C85.0713 7.6823 85.1387 7.84506 85.2587 7.96506C85.3787 8.08507 85.5415 8.15249 85.7112 8.15249H89.0571C89.1469 8.15219 89.235 8.17652 89.3119 8.22285C89.3888 8.26917 89.4515 8.3357 89.4931 8.41519C89.5348 8.49468 89.5539 8.58408 89.5482 8.67366C89.5426 8.76324 89.5125 8.84955 89.4612 8.92319L87.5526 11.6702C87.5046 11.7393 87.4706 11.8172 87.4527 11.8995C87.4348 11.9817 87.4333 12.0667 87.4482 12.1495C87.4632 12.2324 87.4943 12.3114 87.5399 12.3822C87.5855 12.453 87.6445 12.5141 87.7137 12.5621L88.8435 13.3469C88.9126 13.395 88.9904 13.429 89.0726 13.4469C89.1548 13.4648 89.2397 13.4664 89.3225 13.4515C89.4053 13.4366 89.4844 13.4055 89.5551 13.36C89.6259 13.3145 89.687 13.2555 89.7349 13.1863L92.5364 9.15299L95.339 13.1863C95.387 13.2555 95.4481 13.3145 95.5189 13.36C95.5897 13.4055 95.6688 13.4366 95.7516 13.4515C95.8345 13.4664 95.9194 13.4649 96.0017 13.4469C96.0839 13.429 96.1618 13.395 96.2309 13.3469" fill="#FF5100"/>
    </g>
    </g>
    <defs>
    <clipPath id="clip0_342_980">
    <rect width="100" height="21.8076" fill="white" transform="translate(0 0.0961914)"/>
    </clipPath>
    </defs>
    </svg>
    