<svg width="29" height="29" viewBox="0 0 29 29" fill="none" xmlns="http://www.w3.org/2000/svg">
    <path d="M4.01172 13.5933V18.8316C4.01172 24.0699 6.11172 26.1699 11.3501 26.1699H17.6384C22.8767 26.1699 24.9767 24.0699 24.9767 18.8316V13.5933" fill="#FF5100"/>
    <path d="M4.01172 13.5933V18.8316C4.01172 24.0699 6.11172 26.1699 11.3501 26.1699H17.6384C22.8767 26.1699 24.9767 24.0699 24.9767 18.8316V13.5933" stroke="white" stroke-width="1.5" stroke-linecap="round" stroke-linejoin="round"/>
    <path d="M14.5 14.5036C16.635 14.5036 18.21 12.7652 18 10.6302L17.23 2.83691H11.7817L11 10.6302C10.79 12.7652 12.365 14.5036 14.5 14.5036Z" fill="#FF5100" stroke="white" stroke-width="1.5" stroke-linecap="round" stroke-linejoin="round"/>
    <path d="M21.8617 14.5036C24.2183 14.5036 25.945 12.5902 25.7117 10.2452L25.385 7.03691C24.965 4.00358 23.7983 2.83691 20.7417 2.83691H17.1833L18 11.0152C18.1983 12.9402 19.9367 14.5036 21.8617 14.5036Z" fill="#FF5100" stroke="white" stroke-width="1.5" stroke-linecap="round" stroke-linejoin="round"/>
    <path d="M7.08011 14.5036C9.00511 14.5036 10.7434 12.9402 10.9301 11.0152L11.1868 8.43691L11.7468 2.83691H8.18844C5.13177 2.83691 3.96511 4.00358 3.54511 7.03691L3.23011 10.2452C2.99677 12.5902 4.72344 14.5036 7.08011 14.5036Z" fill="#FF5100" stroke="white" stroke-width="1.5" stroke-linecap="round" stroke-linejoin="round"/>
    <path d="M14.4999 20.3369C12.5516 20.3369 11.5833 21.3052 11.5833 23.2536V26.1702H17.4166V23.2536C17.4166 21.3052 16.4483 20.3369 14.4999 20.3369Z" fill="#FF5100" stroke="white" stroke-width="1.5" stroke-linecap="round" stroke-linejoin="round"/>
    </svg>
    